<?xml version="1.0" encoding="UTF-8"?>
<svg id="Layer_2" data-name="Layer 2" xmlns="http://www.w3.org/2000/svg" viewBox="0 0 74.82 38.92">
  <!-- No style block needed, use inline fill -->
  <g id="Layer_1-2" data-name="Layer 1">
    <g>
      <g>
        <path fill="#1c75bc" d="M51.64,38.92h-5.81l-2.18-8.69c1.77-3.19,2.78-6.86,2.78-10.77,0-.52-.02-1.04-.06-1.55l5.27,21.01Z"/>
        <path fill="#1c75bc" d="M44.48,10.33c-1.77-3.92-4.64-7.24-8.21-9.56h0s-.19-.77-.19-.77h5.81l2.59,10.33Z"/>
      </g>
      <polygon fill="#1c75bc" points="63.23 38.92 57.42 38.92 47.67 0 53.47 0 63.23 38.92"/>
      <polygon fill="#1c75bc" points="74.82 38.92 69.01 38.92 59.26 0 65.07 0 74.82 38.92"/>
      <polygon fill="#1c75bc" points="8.34 33.28 9.76 38.92 9.75 38.92 8.34 33.28"/>
      <path fill="#1c75bc" d="M43.62,19.46c0,2.23-.37,4.36-1.06,6.35h0c-2.64,7.62-9.89,13.11-18.39,13.11h-14.4l-1.41-5.63h15.81c7.62,0,13.82-6.2,13.82-13.82s-6.2-13.82-13.82-13.82H1.41l-.68-2.71L0,0h24.16c5.1,0,9.75,1.97,13.23,5.2,3.83,3.55,6.23,8.63,6.23,14.26Z"/>
    </g>
  </g>
</svg>